<mxfile host="app.diagrams.net" agent="Mozilla/5.0 (Windows NT 10.0; Win64; x64) AppleWebKit/537.36 (KHTML, like Gecko) Chrome/127.0.0.0 Safari/537.36" version="24.7.7">
  <diagram name="第 1 页" id="EqJtNUFjkUckAqqfLnca">
    <mxGraphModel dx="1434" dy="841" grid="1" gridSize="10" guides="1" tooltips="1" connect="1" arrows="1" fold="1" page="1" pageScale="1" pageWidth="827" pageHeight="1169" math="0" shadow="0">
      <root>
        <mxCell id="0" />
        <mxCell id="1" parent="0" />
        <mxCell id="t7RX8xcC0XNRupk8x_5n-15" value="" style="rounded=1;whiteSpace=wrap;html=1;" vertex="1" parent="1">
          <mxGeometry x="640" y="125" width="440" height="310" as="geometry" />
        </mxCell>
        <mxCell id="t7RX8xcC0XNRupk8x_5n-14" value="" style="rounded=1;whiteSpace=wrap;html=1;" vertex="1" parent="1">
          <mxGeometry x="630" y="150" width="440" height="310" as="geometry" />
        </mxCell>
        <mxCell id="t7RX8xcC0XNRupk8x_5n-10" value="" style="rounded=1;whiteSpace=wrap;html=1;" vertex="1" parent="1">
          <mxGeometry x="90" y="170" width="440" height="310" as="geometry" />
        </mxCell>
        <mxCell id="t7RX8xcC0XNRupk8x_5n-2" value="etcd" style="shape=cylinder3;whiteSpace=wrap;html=1;boundedLbl=1;backgroundOutline=1;size=15;" vertex="1" parent="1">
          <mxGeometry x="190" y="240" width="60" height="80" as="geometry" />
        </mxCell>
        <mxCell id="t7RX8xcC0XNRupk8x_5n-4" value="api server" style="rounded=0;whiteSpace=wrap;html=1;" vertex="1" parent="1">
          <mxGeometry x="330" y="250" width="120" height="60" as="geometry" />
        </mxCell>
        <mxCell id="t7RX8xcC0XNRupk8x_5n-5" style="edgeStyle=orthogonalEdgeStyle;rounded=0;orthogonalLoop=1;jettySize=auto;html=1;exitX=0;exitY=0.5;exitDx=0;exitDy=0;entryX=1;entryY=0.5;entryDx=0;entryDy=0;entryPerimeter=0;" edge="1" parent="1" source="t7RX8xcC0XNRupk8x_5n-4" target="t7RX8xcC0XNRupk8x_5n-2">
          <mxGeometry relative="1" as="geometry" />
        </mxCell>
        <mxCell id="t7RX8xcC0XNRupk8x_5n-7" style="edgeStyle=orthogonalEdgeStyle;rounded=0;orthogonalLoop=1;jettySize=auto;html=1;exitX=0.5;exitY=0;exitDx=0;exitDy=0;entryX=0.25;entryY=1;entryDx=0;entryDy=0;" edge="1" parent="1" source="t7RX8xcC0XNRupk8x_5n-6" target="t7RX8xcC0XNRupk8x_5n-4">
          <mxGeometry relative="1" as="geometry" />
        </mxCell>
        <mxCell id="t7RX8xcC0XNRupk8x_5n-6" value="controller manager" style="rounded=0;whiteSpace=wrap;html=1;" vertex="1" parent="1">
          <mxGeometry x="190" y="360" width="120" height="60" as="geometry" />
        </mxCell>
        <mxCell id="t7RX8xcC0XNRupk8x_5n-9" style="edgeStyle=orthogonalEdgeStyle;rounded=0;orthogonalLoop=1;jettySize=auto;html=1;exitX=0.5;exitY=0;exitDx=0;exitDy=0;entryX=0.5;entryY=1;entryDx=0;entryDy=0;" edge="1" parent="1" source="t7RX8xcC0XNRupk8x_5n-8" target="t7RX8xcC0XNRupk8x_5n-4">
          <mxGeometry relative="1" as="geometry" />
        </mxCell>
        <mxCell id="t7RX8xcC0XNRupk8x_5n-8" value="scheduler" style="rounded=0;whiteSpace=wrap;html=1;" vertex="1" parent="1">
          <mxGeometry x="330" y="360" width="120" height="60" as="geometry" />
        </mxCell>
        <mxCell id="t7RX8xcC0XNRupk8x_5n-11" value="&lt;font style=&quot;font-size: 14px;&quot;&gt;&lt;span style=&quot;font-weight: normal;&quot;&gt;控制平面&lt;/span&gt;&lt;/font&gt;" style="text;html=1;align=center;verticalAlign=middle;whiteSpace=wrap;rounded=0;fontStyle=1" vertex="1" parent="1">
          <mxGeometry x="120" y="190" width="60" height="30" as="geometry" />
        </mxCell>
        <mxCell id="t7RX8xcC0XNRupk8x_5n-12" value="" style="rounded=1;whiteSpace=wrap;html=1;" vertex="1" parent="1">
          <mxGeometry x="610" y="170" width="440" height="310" as="geometry" />
        </mxCell>
        <mxCell id="t7RX8xcC0XNRupk8x_5n-13" value="&lt;span style=&quot;font-size: 14px; font-weight: 400;&quot;&gt;工作节点1&lt;/span&gt;" style="text;html=1;align=center;verticalAlign=middle;whiteSpace=wrap;rounded=0;fontStyle=1" vertex="1" parent="1">
          <mxGeometry x="660" y="190" width="80" height="30" as="geometry" />
        </mxCell>
        <mxCell id="t7RX8xcC0XNRupk8x_5n-23" style="edgeStyle=orthogonalEdgeStyle;rounded=0;orthogonalLoop=1;jettySize=auto;html=1;exitX=0;exitY=0.5;exitDx=0;exitDy=0;elbow=vertical;entryX=1;entryY=0.25;entryDx=0;entryDy=0;" edge="1" parent="1" source="t7RX8xcC0XNRupk8x_5n-16" target="t7RX8xcC0XNRupk8x_5n-4">
          <mxGeometry relative="1" as="geometry" />
        </mxCell>
        <mxCell id="t7RX8xcC0XNRupk8x_5n-16" value="kube proxy" style="rounded=0;whiteSpace=wrap;html=1;" vertex="1" parent="1">
          <mxGeometry x="780" y="200" width="120" height="60" as="geometry" />
        </mxCell>
        <mxCell id="t7RX8xcC0XNRupk8x_5n-21" style="edgeStyle=orthogonalEdgeStyle;rounded=0;orthogonalLoop=1;jettySize=auto;html=1;exitX=0.5;exitY=1;exitDx=0;exitDy=0;entryX=0.5;entryY=0;entryDx=0;entryDy=0;" edge="1" parent="1" source="t7RX8xcC0XNRupk8x_5n-17" target="t7RX8xcC0XNRupk8x_5n-18">
          <mxGeometry relative="1" as="geometry" />
        </mxCell>
        <mxCell id="t7RX8xcC0XNRupk8x_5n-25" style="edgeStyle=orthogonalEdgeStyle;rounded=0;orthogonalLoop=1;jettySize=auto;html=1;exitX=0;exitY=0.5;exitDx=0;exitDy=0;entryX=1;entryY=0.75;entryDx=0;entryDy=0;elbow=vertical;" edge="1" parent="1" source="t7RX8xcC0XNRupk8x_5n-17" target="t7RX8xcC0XNRupk8x_5n-4">
          <mxGeometry relative="1" as="geometry" />
        </mxCell>
        <mxCell id="t7RX8xcC0XNRupk8x_5n-17" value="kubelet" style="rounded=0;whiteSpace=wrap;html=1;" vertex="1" parent="1">
          <mxGeometry x="780" y="300" width="120" height="60" as="geometry" />
        </mxCell>
        <mxCell id="t7RX8xcC0XNRupk8x_5n-18" value="容器运行时" style="rounded=0;whiteSpace=wrap;html=1;" vertex="1" parent="1">
          <mxGeometry x="780" y="390" width="120" height="60" as="geometry" />
        </mxCell>
      </root>
    </mxGraphModel>
  </diagram>
</mxfile>
